<?xml version="1.0" encoding="UTF-8" standalone="no"?>
<!-- Created with Inkscape (http://www.inkscape.org/) -->

<svg
   xmlns:dc="http://purl.org/dc/elements/1.1/"
   xmlns:cc="http://creativecommons.org/ns#"
   xmlns:rdf="http://www.w3.org/1999/02/22-rdf-syntax-ns#"
   xmlns:svg="http://www.w3.org/2000/svg"
   xmlns="http://www.w3.org/2000/svg"
   xmlns:sodipodi="http://sodipodi.sourceforge.net/DTD/sodipodi-0.dtd"
   xmlns:inkscape="http://www.inkscape.org/namespaces/inkscape"
   width="162.79889mm"
   height="82.249985mm"
   viewBox="0 0 162.79889 82.249985"
   version="1.1"
   id="svg932"
   inkscape:version="0.92.4 5da689c313, 2019-01-14"
   sodipodi:docname="lucent-logo.svg">
  <defs
     id="defs926" />
  <sodipodi:namedview
     id="base"
     pagecolor="#ffffff"
     bordercolor="#666666"
     borderopacity="1.0"
     inkscape:pageopacity="0.0"
     inkscape:pageshadow="2"
     inkscape:zoom="0.35"
     inkscape:cx="304.79432"
     inkscape:cy="9.7187707"
     inkscape:document-units="mm"
     inkscape:current-layer="g883"
     showgrid="false"
     inkscape:window-width="1920"
     inkscape:window-height="981"
     inkscape:window-x="0"
     inkscape:window-y="28"
     inkscape:window-maximized="1" />
  <metadata
     id="metadata929">
    <rdf:RDF>
      <cc:Work
         rdf:about="">
        <dc:format>image/svg+xml</dc:format>
        <dc:type
           rdf:resource="http://purl.org/dc/dcmitype/StillImage" />
        <dc:title></dc:title>
      </cc:Work>
    </rdf:RDF>
  </metadata>
  <g
     inkscape:label="Layer 1"
     inkscape:groupmode="layer"
     id="layer1"
     transform="translate(-25.189836,-69.154773)">
    <g
       transform="matrix(0.35277777,0,0,0.35277777,-14.203177,-35.252415)"
       id="g883">
      <g
         transform="matrix(0.93789682,-1.1072791,1.0574118,0.89565779,-749.7813,213.64843)"
         style="stroke:#fbf754;stroke-width:3.10283804;stroke-miterlimit:4;stroke-dasharray:none;stroke-opacity:1"
         id="g9420">
        <circle
           style="opacity:1;fill:#ffffff;fill-opacity:0;stroke:#fffc80;stroke-width:2.46816659;stroke-miterlimit:4;stroke-dasharray:none;stroke-opacity:1"
           id="path9379"
           cx="433.125"
           cy="757.51477"
           r="80.625" />
        <circle
           style="opacity:1;fill:#ffffff;fill-opacity:0;stroke:#fbf754;stroke-width:2.46816659;stroke-miterlimit:4;stroke-dasharray:none;stroke-opacity:1"
           id="path9384"
           cx="433.4129"
           cy="760.22687"
           r="71.906921" />
        <circle
           style="opacity:1;fill:#ffffff;fill-opacity:0;stroke:#fbf054;stroke-width:2.46816659;stroke-miterlimit:4;stroke-dasharray:none;stroke-opacity:1"
           id="path9386"
           cx="432.75"
           cy="763.13977"
           r="63.75" />
        <circle
           style="opacity:1;fill:#ffffff;fill-opacity:0;stroke:#f8ea35;stroke-width:2.46816659;stroke-miterlimit:4;stroke-dasharray:none;stroke-opacity:1"
           id="path9388"
           cx="432.75"
           cy="766.13977"
           r="56.25" />
        <circle
           style="opacity:1;fill:#ffffff;fill-opacity:0;stroke:#ffe233;stroke-width:2.46816659;stroke-miterlimit:4;stroke-dasharray:none;stroke-opacity:1"
           id="path9390"
           cx="432.08188"
           cy="769.81378"
           r="48.75" />
        <circle
           style="opacity:1;fill:#ffffff;fill-opacity:0;stroke:#f4df09;stroke-width:2.46816659;stroke-miterlimit:4;stroke-dasharray:none;stroke-opacity:1"
           id="path9392"
           cx="432.75"
           cy="773.63977"
           r="41.25" />
        <circle
           style="opacity:1;fill:#ffffff;fill-opacity:0;stroke:#ffe220;stroke-width:2.46816659;stroke-miterlimit:4;stroke-dasharray:none;stroke-opacity:1"
           id="path9396"
           cx="432.84375"
           cy="777.48352"
           r="33.106148" />
        <circle
           style="opacity:1;fill:#ffffff;fill-opacity:0;stroke:#ffda00;stroke-width:2.46816659;stroke-miterlimit:4;stroke-dasharray:none;stroke-opacity:1"
           id="path9398"
           cx="432.84375"
           cy="781.04602"
           r="25.379465" />
        <circle
           style="opacity:1;fill:#ffffff;fill-opacity:0;stroke:#f8d32f;stroke-width:2.46816659;stroke-miterlimit:4;stroke-dasharray:none;stroke-opacity:1"
           id="path9402"
           cx="432.5625"
           cy="784.32727"
           r="17.416637" />
        <circle
           style="opacity:1;fill:#ffffff;fill-opacity:0;stroke:#ffca30;stroke-width:2.46816659;stroke-miterlimit:4;stroke-dasharray:none;stroke-opacity:1"
           id="path9404"
           cx="432.98438"
           cy="787.74915"
           r="9.5941782" />
        <circle
           style="opacity:1;fill:#ffffff;fill-opacity:0;stroke:#fdcd00;stroke-width:2.46816659;stroke-miterlimit:4;stroke-dasharray:none;stroke-opacity:1"
           id="path9406"
           cx="433.07812"
           cy="791.31165"
           r="2.1882734" />
      </g>
      <g
         aria-label="LucentBid"
         transform="matrix(1.9862556,0,0,2.1516537,-149.32875,-898.08032)"
         style="font-style:normal;font-variant:normal;font-weight:normal;font-stretch:normal;font-size:40px;line-height:1.25;font-family:'Amerika Sans';-inkscape-font-specification:'Amerika Sans';letter-spacing:0px;word-spacing:0px;fill:#000000;fill-opacity:1;stroke:none;stroke-width:0;stroke-miterlimit:4;stroke-dasharray:none"
         id="flowRoot100">
        <path
           d="M 147.2,620.83214 H 139 v -21.6 l 3.4,-0.8 v -2.4 l -11,0.2 v 2.2 l 3.4,0.8 v 21.6 l -3.4,0.8 v 2.4 h 19.4 v -7.8 H 148 Z"
           style="font-style:normal;font-variant:normal;font-weight:normal;font-stretch:normal;font-family:Bitter;-inkscape-font-specification:Bitter;fill:#2c5aa0;stroke:#ffffff;stroke-width:0;stroke-miterlimit:4;stroke-dasharray:none;stroke-opacity:1"
           id="path972"
           inkscape:connector-curvature="0" />
        <path
           d="m 176.17187,621.63214 -3.4,-0.8 v -18 l -7.4,0.2 v 2.2 l 3.4,0.8 v 11.84 c 0,0 -2.4,3.16 -5.8,3.16 -2.6,0 -3.6,-1.36 -3.6,-4.16 v -14.04 l -7.4,0.2 v 2.2 l 3.4,0.8 v 11.24 c 0,4.4 2,7.16 6.4,7.16 3.28,0 6.44,-2.36 7.4,-3.2 l 0.4,2.8 6.6,-0.2 z"
           style="font-style:normal;font-variant:normal;font-weight:normal;font-stretch:normal;font-family:Bitter;-inkscape-font-specification:Bitter;fill:#2c5aa0;stroke:#ffffff;stroke-width:0;stroke-miterlimit:4;stroke-dasharray:none;stroke-opacity:1"
           id="path974"
           inkscape:connector-curvature="0" />
        <path
           d="m 193.1875,609.43214 h 2.6 l 0.2,-5.4 c 0,0 -3.2,-1.6 -6.8,-1.6 -6.4,0 -10.4,4.6 -10.4,11 0,6.8 3.4,11 10,11 4.4,0 8,-3.2 8,-3.2 l -1.4,-2.4 c 0,0 -2.4,2.4 -6.2,2.4 -3.8,0 -6.2,-2.8 -6.2,-8.2 0,-5 2.2,-7.4 6,-7.4 2,0 3.6,0.4 3.6,0.4 z"
           style="font-style:normal;font-variant:normal;font-weight:normal;font-stretch:normal;font-family:Bitter;-inkscape-font-specification:Bitter;fill:#2c5aa0;stroke:#ffffff;stroke-width:0;stroke-miterlimit:4;stroke-dasharray:none;stroke-opacity:1"
           id="path976"
           inkscape:connector-curvature="0" />
        <path
           d="m 217.17812,613.95214 c 0,0 0.2,-1.12 0.2,-2.12 0,-6 -2.6,-9.4 -8.4,-9.4 -5.8,0 -9.8,4.8 -9.8,11.2 0,6.6 3.2,10.8 9.6,10.8 4.8,0 8.52,-3.32 8.52,-3.32 l -1.4,-2.08 c 0,0 -2.72,2.2 -6.72,2.2 -3.44,0 -5.8,-2.8 -5.8,-7.2 z m -13.64,-2.92 c 0.24,-3 2.04,-5.48 5.24,-5.48 3.2,0 4.36,2.48 4.36,5.48 z"
           style="font-style:normal;font-variant:normal;font-weight:normal;font-stretch:normal;font-family:Bitter;-inkscape-font-specification:Bitter;fill:#2c5aa0;stroke:#ffffff;stroke-width:0;stroke-miterlimit:4;stroke-dasharray:none;stroke-opacity:1"
           id="path978"
           inkscape:connector-curvature="0" />
        <path
           d="m 227.34062,602.83214 -6.6,0.2 v 2.2 l 3.4,0.8 v 14.8 l -3.4,1 v 2.2 h 10 v -2.2 l -2.6,-1 v -11.8 c 0,0 2.4,-3.2 5.8,-3.2 2.6,0 3.6,1.4 3.6,4.2 v 10.8 l -2.6,1 v 2.2 h 9.6 v -2.2 l -3,-1 v -11.2 c 0,-4.4 -2,-7.2 -6.4,-7.2 -3.32,0 -6.48,2.4 -7.44,3.24 z"
           style="font-style:normal;font-variant:normal;font-weight:normal;font-stretch:normal;font-family:Bitter;-inkscape-font-specification:Bitter;fill:#2c5aa0;stroke:#ffffff;stroke-width:0;stroke-miterlimit:4;stroke-dasharray:none;stroke-opacity:1"
           id="path980"
           inkscape:connector-curvature="0" />
        <path
           d="m 260.30313,603.03214 h -5.80001 v -5.84 l -4,0.8 v 5.04 l -4,0.4 v 2.6 h 4 v 12.6 c 0,4.48 2.2,5.8 4.6,5.8 2,0 3.8,-0.68 5.6,-2 l -1.07999,-2.12 c -1.04001,0.56 -2.16001,1 -3.12001,1 -1.12,0 -2,-0.6 -2,-2.44 v -12.84 h 5.80001 z"
           style="font-style:normal;font-variant:normal;font-weight:normal;font-stretch:normal;font-family:Bitter;-inkscape-font-specification:Bitter;fill:#2c5aa0;stroke:#ffffff;stroke-width:0;stroke-miterlimit:4;stroke-dasharray:none;stroke-opacity:1"
           id="path982"
           inkscape:connector-curvature="0" />
        <path
           d="m 266.48437,620.83214 -3.39999,0.8 v 2.4 h 11.39999 c 6.60001,0 10.2,-2.4 10.2,-8 0,-3.2 -2,-5.56 -6.2,-6.52 3.36001,-0.84 5.2,-2.88 5.2,-6.48 0,-4.8 -3.59999,-7 -8.59999,-7 h -4.60001 l -7.39999,0.2 v 2.2 l 3.39999,0.8 z m 4,-12.8 v -8.8 h 4.4 c 2.6,0 4.6,1.4 4.6,4.2 0,3.2 -2.39999,4.6 -6,4.6 z m 0,12.8 v -9.8 h 3 c 4.4,0 7,1.2 7,5.2 0,3 -2,4.6 -5.8,4.6 z"
           style="font-style:normal;font-variant:normal;font-weight:normal;font-stretch:normal;font-family:Bitter;-inkscape-font-specification:Bitter;fill:#2c5aa0;stroke:#ffffff;stroke-width:0;stroke-miterlimit:4;stroke-dasharray:none;stroke-opacity:1"
           id="path984"
           inkscape:connector-curvature="0" />
        <path
           d="m 290.91875,596.23214 c 0,1.8 1,2.8 2.6,2.8 1.2,0 2.6,-1 2.6,-2.8 0,-2 -1,-2.8 -2.6,-2.8 -1.4,0 -2.6,1 -2.6,2.8 z m 7.8,25.6 -3,-1 v -18 l -7.4,0.2 v 2.2 l 3.4,0.8 v 14.8 l -3.4,1 v 2.2 h 10.4 z"
           style="font-style:normal;font-variant:normal;font-weight:normal;font-stretch:normal;font-family:Bitter;-inkscape-font-specification:Bitter;fill:#2c5aa0;stroke:#ffffff;stroke-width:0;stroke-miterlimit:4;stroke-dasharray:none;stroke-opacity:1"
           id="path986"
           inkscape:connector-curvature="0" />
        <path
           d="m 323.75625,621.63214 -3.4,-0.8 v -27.6 l -7.4,0.2 v 2.2 l 3.4,0.8 v 6.64 c -1.04,-0.36 -2.32,-0.64 -3.8,-0.64 -7.2,0 -10.6,4.8 -10.6,11.6 0,6.2 2.6,10.4 8.4,10.4 3.04,0 5.12,-1.52 6.28,-2.68 l 0.32,2.28 6.8,-0.2 z m -7.4,-3.4 c 0,0 -1.8,3 -5.2,3 -3.6,0 -5,-3.2 -5,-7.6 0,-4.4 1.36,-8 6,-8 2.8,0 4.2,0.8 4.2,0.8 z"
           style="font-style:normal;font-variant:normal;font-weight:normal;font-stretch:normal;font-family:Bitter;-inkscape-font-specification:Bitter;fill:#2c5aa0;stroke:#ffffff;stroke-width:0;stroke-miterlimit:4;stroke-dasharray:none;stroke-opacity:1"
           id="path988"
           inkscape:connector-curvature="0" />
      </g>
    </g>
  </g>
</svg>
